<svg width="432" height="66" viewBox="0 0 432 66" fill="none" xmlns="http://www.w3.org/2000/svg">
<g clip-path="url(#clip0_1_65)">
<g clip-path="url(#clip1_1_65)">
<path d="M62.7175 18.5154L35.1539 2.60353C34.458 2.20591 33.5421 2 32.6261 2C31.7102 2 30.7943 2.19881 30.0984 2.60353L2.52773 18.5154C1.13606 19.3178 0 21.2917 0 22.8964V57.6455L11.531 50.9854V26.6382L30.0984 15.9167C31.6605 15.015 33.5847 15.015 35.1468 15.9167L53.7142 26.6382V50.9925L65.2452 57.6526V22.8964C65.2452 21.2917 64.1091 19.3178 62.7175 18.5154V18.5154Z" fill="#5BC6CC"/>
<path d="M0 57.6455L30.0984 40.271C30.7943 39.8733 31.7102 39.6674 32.6261 39.6674C33.5421 39.6674 34.458 39.8662 35.1539 40.271L65.2523 57.6455L53.7213 64.3057L35.1539 53.5841C33.5918 52.6824 31.6676 52.6824 30.1055 53.5841L11.5381 64.3057L0 57.6455Z" fill="#5BC6CC"/>
<path d="M11.531 26.6383L0.745538 20.4042C0.284014 21.1994 0 22.0941 0 22.8964V57.6456L11.531 50.9854V26.6383Z" fill="#00ACA0"/>
<path d="M53.7142 26.6383V50.9925L65.2452 57.6527V22.8964C65.2452 22.0941 64.9612 21.1994 64.4996 20.4042L53.7142 26.6312V26.6383Z" fill="#00ACA0"/>
<path d="M11.531 50.9925V64.3057L0 57.6455L11.531 50.9925Z" fill="#00927C"/>
<path d="M53.7142 50.9925V64.3057L65.2452 57.6455L53.7142 50.9925Z" fill="#00927C"/>
<path d="M83.4434 59.2644L85.3037 52.5617C86.9865 53.4066 89.003 54.1806 91.3319 54.8693C93.6608 55.5651 95.8477 55.9131 97.8855 55.9131C101.159 55.9131 103.665 55.3521 105.405 54.2374C107.137 53.1226 108.011 51.5463 108.011 49.5156C108.011 48.2234 107.535 47.0447 106.598 45.9797C105.653 44.9146 104.446 43.9632 102.984 43.1182C101.521 42.2733 99.3979 41.1585 96.6217 39.7668C91.9638 37.3882 88.4491 35.0167 86.0918 32.6594C83.7345 30.3021 82.5558 27.3625 82.5558 23.8407C82.5558 21.313 83.2375 19.0409 84.6008 17.0315C85.9711 15.0221 87.9237 13.4316 90.487 12.2672C93.0431 11.1027 96.0536 10.5134 99.5257 10.5134C101.862 10.5134 104.226 10.8471 106.633 11.5216C109.04 12.1891 111.284 13.0482 113.371 14.0848L110.538 20.7095C108.65 19.8148 106.903 19.1261 105.291 18.622C103.679 18.125 101.855 17.8835 99.8239 17.8835C97.2465 17.8835 95.1377 18.3806 93.4975 19.3675C91.8644 20.3616 91.0479 21.8242 91.0479 23.7626C91.0479 25.1543 91.481 26.3827 92.3472 27.4477C93.2135 28.5128 94.3566 29.4571 95.7696 30.2737C97.1826 31.0973 99.405 32.276 102.43 33.8096C105.604 35.4427 108.153 36.9196 110.063 38.2403C111.973 39.5538 113.535 41.1443 114.749 43.0046C115.963 44.8649 116.574 47.0376 116.574 49.5156C116.574 52.1925 115.857 54.5782 114.415 56.6586C112.974 58.739 110.851 60.365 108.053 61.5365C105.249 62.701 101.89 63.2832 97.9707 63.2832C95.8406 63.2832 93.2064 62.8501 90.0822 61.9768C86.951 61.1105 84.7428 60.2017 83.4576 59.2573L83.4434 59.2644Z" fill="#00ACA0"/>
<path d="M173.618 28.5199C175.478 30.8559 176.408 34.1291 176.408 38.3468V62.3176H168.002V39.6177C168.002 37.1397 167.618 35.2581 166.844 34.0013C166.07 32.7304 164.771 32.1055 162.939 32.1055C161.498 32.1055 159.985 32.5316 158.395 33.3694C156.804 34.2144 155.1 35.3575 153.261 36.7918C153.304 37.1397 153.332 37.658 153.332 38.3539V62.3247H144.925V39.6248C144.925 37.1468 144.542 35.2652 143.768 34.0084C142.994 32.7375 141.695 32.1126 139.856 32.1126C137.229 32.1126 133.906 33.7741 129.887 37.1042V62.3318H121.551V26.2193H127.132L128.623 30.5364C130.703 28.8536 132.94 27.5116 135.319 26.5176C137.697 25.5306 139.884 25.0265 141.872 25.0265C146.736 25.0265 150.031 26.8371 151.77 30.4583C153.858 28.8252 156.073 27.5116 158.43 26.5176C160.788 25.5306 162.96 25.0265 164.941 25.0265C168.861 25.0265 171.751 26.1909 173.611 28.527L173.618 28.5199Z" fill="#00ACA0"/>
<path d="M185.49 35.2936L183.182 28.4489C184.474 27.6039 186.47 26.8655 189.175 26.2194C191.88 25.5732 194.074 25.2537 195.764 25.2537C198.54 25.2537 201.082 25.8218 203.39 26.9649C205.697 28.1081 207.522 29.6559 208.857 31.6156C210.199 33.5753 210.866 35.7694 210.866 38.2048V62.3247H205.286L204.015 58.6751C202.623 60.0171 201.04 61.1034 199.25 61.9484C197.468 62.7862 195.672 63.2122 193.89 63.2122C189.722 63.2122 186.555 62.1685 184.396 60.0881C182.238 58.0077 181.159 55.2243 181.159 51.7523C181.159 48.2802 182.387 45.3264 184.844 43.3454C187.293 41.3573 190.538 40.3633 194.557 40.3633H202.445C202.346 35.3504 200.166 32.8511 195.899 32.8511C192.626 32.8511 189.146 33.6676 185.476 35.3007L185.49 35.2936ZM188.465 51.7452C188.465 53.0374 188.941 54.1664 189.878 55.132C190.822 56.0977 192.114 56.5805 193.748 56.5805C195.288 56.5805 196.829 56.2113 198.363 55.4658C199.904 54.7273 201.295 53.7049 202.531 52.4197V45.9442H194.415C192.583 45.9442 191.127 46.5051 190.055 47.6199C188.983 48.7346 188.458 50.1121 188.458 51.7523L188.465 51.7452Z" fill="#00ACA0"/>
<path d="M226.203 62.3176H217.867V26.2194H222.334L225.088 32.1695C226.871 30.6855 228.923 29.3151 231.223 28.0797C233.531 26.8371 235.554 26.2194 237.294 26.2194L239.005 32.915C237.216 32.915 235.135 33.5398 232.75 34.7753C230.371 36.0179 228.184 37.5302 226.203 39.3124V62.3105V62.3176Z" fill="#00ACA0"/>
<path d="M261.776 26.5104L264.304 32.9079H255.222V50.1049C255.222 52.0433 255.656 53.5912 256.529 54.7557C257.395 55.9201 258.694 56.5024 260.434 56.5024C261.577 56.5024 262.813 56.2041 264.155 55.6077L266.462 61.785C265.717 62.282 264.687 62.7152 263.374 63.0915C262.053 63.4607 260.86 63.6524 259.76 63.6524C255.741 63.6524 252.588 62.6087 250.309 60.5283C248.023 58.4408 246.887 55.4373 246.887 51.5179V32.9079H241.895V26.5104H246.887V17.6492L255.222 16.0161V26.5104H261.776V26.5104Z" fill="#00ACA0"/>
<path d="M269.892 11.699H284.994C290.802 11.699 295.517 12.9771 299.138 15.5261C302.766 18.0823 304.57 21.888 304.57 26.9506C304.57 30.0748 303.782 32.7871 302.191 35.0663C300.608 37.3526 298.492 39.0851 295.865 40.278L308.44 62.3104H299.436L288.417 42.3655C287.43 42.5146 286.059 42.5856 284.327 42.5856H278.228V62.3104H269.892V11.699V11.699ZM284.852 18.6929H278.228V35.7409H284.703C288.026 35.7409 290.703 35.0663 292.741 33.7314C294.778 32.3966 295.794 30.2594 295.794 27.334C295.794 24.2596 294.857 22.0514 292.968 20.7094C291.079 19.3674 288.374 18.7 284.852 18.7V18.6929Z" fill="#00ACA0"/>
<path d="M342.01 46.4625H317.003C317.748 52.9167 321.589 56.1403 328.541 56.1403C330.479 56.1403 332.197 55.8847 333.717 55.3592C335.229 54.8338 337.054 54.0315 339.184 52.938L341.712 59.0443C337.693 61.8276 333.248 63.2122 328.384 63.2122C321.831 63.2122 316.839 61.5152 313.389 58.1142C309.938 54.7131 308.212 50.0837 308.212 44.233C308.212 40.4627 308.922 37.1539 310.335 34.2996C311.748 31.4452 313.786 29.2299 316.435 27.6394C319.09 26.0489 322.228 25.2608 325.85 25.2608C331.161 25.2608 335.18 27.0217 337.906 30.5435C340.64 34.0652 341.996 38.5598 341.996 44.0129V46.4696L342.01 46.4625ZM317.152 40.8816H333.972C333.525 38.1054 332.602 35.9965 331.218 34.5552C329.826 33.1138 327.966 32.3896 325.637 32.3896C323.308 32.3896 321.327 33.1351 319.864 34.6262C318.401 36.1173 317.493 38.1977 317.145 40.8745L317.152 40.8816Z" fill="#00ACA0"/>
<path d="M355.785 62.3176H347.449V26.2193H353.03L354.521 30.5364C356.608 28.8536 358.888 27.5116 361.366 26.5176C363.844 25.5306 366.18 25.0265 368.359 25.0265C372.577 25.0265 375.63 26.2833 377.519 28.7897C379.408 31.2961 380.345 34.7327 380.345 39.0994V62.3247H371.938V39.6248C371.938 34.612 370.078 32.1055 366.357 32.1055C363.332 32.1055 359.803 33.767 355.792 37.0971V62.3247L355.785 62.3176Z" fill="#00ACA0"/>
<path d="M404.309 26.5104L406.836 32.9079H397.755V50.1049C397.755 52.0433 398.188 53.5912 399.061 54.7557C399.928 55.9201 401.227 56.5024 402.967 56.5024C404.11 56.5024 405.345 56.2041 406.687 55.6077L408.995 61.785C408.249 62.282 407.22 62.7152 405.906 63.0915C404.586 63.4607 403.393 63.6524 402.292 63.6524C398.273 63.6524 395.121 62.6087 392.842 60.5283C390.555 58.4408 389.419 55.4373 389.419 51.5179V32.9079H384.428V26.5104H389.419V17.6492L397.755 16.0161V26.5104H404.309V26.5104Z" fill="#00ACA0"/>
<path d="M426.98 22.4135C426.98 21.3911 426.675 20.6172 426.071 20.113C425.468 19.6018 424.509 19.3462 423.21 19.3462H420.27V29.4855H422.393V25.6016H423.401L425.56 29.4855H427.931L425.269 25.0265C426.412 24.565 426.987 23.6916 426.987 22.4064L426.98 22.4135ZM424.417 23.5851C424.133 23.8478 423.714 23.9756 423.16 23.9756H422.386V21.0077H423.139C423.728 21.0077 424.161 21.1142 424.438 21.3272C424.715 21.5402 424.85 21.9165 424.85 22.4561C424.85 22.939 424.708 23.3153 424.424 23.578L424.417 23.5851Z" fill="#00ACA0"/>
<path d="M430.864 20.1769C430.111 18.8704 429.075 17.8409 427.768 17.0882C426.455 16.3427 425.056 15.9664 423.558 15.9664C422.06 15.9664 420.632 16.3427 419.326 17.1024C418.012 17.8551 416.983 18.8917 416.237 20.1982C415.485 21.5117 415.115 22.9105 415.115 24.4087C415.115 25.9069 415.478 27.2772 416.209 28.5766C416.94 29.8689 417.963 30.9055 419.269 31.6795C420.583 32.4534 422.01 32.8439 423.558 32.8439C425.106 32.8439 426.547 32.4534 427.861 31.6724C429.167 30.8913 430.189 29.8547 430.914 28.5624C431.638 27.2701 432.007 25.8856 432.007 24.4087C432.007 22.9318 431.631 21.4833 430.871 20.1769H430.864ZM429.678 27.9305C429.053 29.0097 428.194 29.876 427.101 30.515C426.007 31.154 424.829 31.4736 423.551 31.4736C422.273 31.4736 421.115 31.1611 420.022 30.5292C418.928 29.8973 418.069 29.0381 417.437 27.9518C416.805 26.8654 416.486 25.6797 416.486 24.4087C416.486 23.1377 416.805 21.9449 417.451 20.8514C418.098 19.758 418.957 18.8988 420.043 18.2811C421.122 17.6563 422.294 17.3509 423.551 17.3509C424.807 17.3509 425.972 17.6634 427.072 18.2953C428.166 18.9272 429.032 19.7864 429.664 20.8798C430.296 21.9804 430.615 23.1519 430.615 24.4158C430.615 25.6797 430.303 26.8512 429.678 27.9376V27.9305Z" fill="#00ACA0"/>
</g>
</g>
<defs>
<clipPath id="clip0_1_65">
<rect width="432" height="66" fill="white"/>
</clipPath>
<clipPath id="clip1_1_65">
<rect width="432" height="62.3056" fill="white" transform="translate(0 2)"/>
</clipPath>
</defs>
</svg>
